<?xml version="1.0" standalone="no"?>
<!DOCTYPE svg PUBLIC "-//W3C//DTD SVG 20010904//EN"
 "http://www.w3.org/TR/2001/REC-SVG-20010904/DTD/svg10.dtd">
<svg version="1.0" xmlns="http://www.w3.org/2000/svg"
 width="512.000000pt" height="512.000000pt" viewBox="0 0 512.000000 512.000000"
 preserveAspectRatio="xMidYMid meet">
<metadata>
Created by potrace 1.14, written by Peter Selinger 2001-2017
</metadata>
<g transform="translate(0.000000,512.000000) scale(0.100000,-0.100000)"
fill="#000000" stroke="none">
<path d="M1855 5101 c-157 -38 -296 -128 -389 -251 -91 -121 -131 -231 -140
-389 -5 -81 22 -204 66 -301 59 -131 244 -352 389 -465 28 -22 63 -50 77 -63
15 -12 88 -64 162 -114 74 -50 138 -94 143 -98 4 -3 -233 -6 -525 -7 -529 0
-533 0 -585 -22 -198 -86 -203 -360 -8 -465 38 -20 54 -21 360 -23 176 -2 340
-3 364 -3 l44 0 -83 -50 c-380 -229 -641 -605 -720 -1040 -18 -98 -21 -126
-24 -240 -18 -664 401 -1265 1034 -1485 176 -61 325 -84 525 -80 143 3 179 6
298 31 301 62 619 247 818 475 219 252 333 507 384 859 7 49 7 286 -1 340 -25
188 -71 338 -159 515 -92 186 -228 359 -392 497 -37 32 -196 138 -235 158 -16
7 -27 15 -25 17 2 1 163 4 358 5 344 3 355 4 399 25 99 49 149 134 144 245 -2
58 -8 75 -38 120 -43 65 -92 99 -161 113 -32 6 -243 10 -563 9 l-510 -1 126
85 c497 332 739 659 719 972 -7 109 -43 221 -103 318 -46 72 -153 187 -186
198 -10 3 -18 9 -18 13 0 14 -153 80 -230 99 -86 22 -243 22 -325 2 -74 -18
-223 -93 -279 -140 l-49 -41 -31 29 c-69 64 -177 122 -286 153 -72 19 -263 20
-345 0z m832 -2470 c39 -6 83 -15 97 -21 14 -5 26 -7 26 -5 0 10 150 -50 230
-92 168 -89 315 -226 423 -396 60 -94 126 -265 143 -371 2 -17 8 -54 12 -82
11 -68 7 -224 -8 -315 -63 -378 -328 -702 -691 -844 -231 -91 -514 -98 -752
-19 -369 122 -678 474 -734 834 -3 19 -9 55 -13 80 -13 68 -5 275 14 364 112
519 577 890 1101 880 44 -1 113 -7 152 -13z"/>
<path d="M925 5005 c-53 -52 -16 -138 60 -138 81 0 112 100 46 150 -27 21 -79
15 -106 -12z"/>
<path d="M4511 4841 c-21 -16 -26 -30 -29 -84 l-4 -65 -49 1 c-58 0 -92 -16
-108 -50 -17 -36 -13 -59 13 -89 19 -22 33 -28 72 -30 27 -1 54 -3 60 -3 7 -1
13 -27 16 -63 4 -53 8 -64 34 -84 39 -32 69 -30 105 5 25 26 29 37 29 85 0 46
3 56 18 57 109 3 137 17 148 74 12 64 -27 97 -112 96 l-54 0 0 58 c0 48 -4 63
-25 85 -29 32 -78 35 -114 7z"/>
<path d="M415 4665 c-44 -43 -29 -112 29 -135 37 -14 72 -3 94 29 26 36 21 80
-12 108 -36 30 -80 30 -111 -2z"/>
<path d="M4169 4240 c-36 -36 -38 -77 -4 -114 41 -45 111 -33 135 23 23 57 -7
103 -74 115 -22 4 -35 -1 -57 -24z"/>
<path d="M519 3911 c-37 -20 -46 -43 -48 -111 l-1 -46 -54 -1 c-65 -1 -89 -13
-106 -53 -25 -61 26 -120 100 -115 53 3 60 -2 60 -54 0 -52 30 -111 57 -112
10 0 27 -2 37 -4 11 -2 31 8 47 25 28 27 36 61 30 123 -1 9 1 17 6 18 4 1 32
2 62 4 45 2 59 7 78 29 29 34 29 77 0 112 -20 22 -31 26 -82 28 l-60 1 -1 52
c-3 93 -59 139 -125 104z"/>
<path d="M3685 3833 c-84 -20 -62 -163 25 -163 40 0 90 47 90 85 0 16 -12 38
-29 56 -29 28 -44 32 -86 22z"/>
</g>
</svg>
